<?xml version="1.0"?>
<svg width="683.009" height="668.366" xmlns="http://www.w3.org/2000/svg" xmlns:svg="http://www.w3.org/2000/svg" enable-background="new 0 0 683.009 668.366" version="1.1" xml:space="preserve">
 <g class="layer">
  <title>Layer 1</title>
  <path d="m70.58,575.01l-14.32,0c-1.85,0 -3.37,-1.36 -3.37,-3.03l0,-2.43c-7.75,4.25 -15.67,6.68 -23.75,6.68c-13.98,0 -29.14,-4.86 -29.14,-25.35l0,-0.61c0,-17.3 11.79,-26.25 41.1,-26.25l10.61,0l0,-6.68c0,-9.86 -4.88,-12.29 -14.82,-12.29c-10.78,0 -21.9,0.6 -27.46,1.21l-0.84,0c-1.68,0 -3.03,-0.45 -3.03,-2.58l0,-9.71c0,-1.67 1.01,-2.73 3.2,-3.19c6.74,-1.21 16.51,-2.43 28.13,-2.43c23.92,0 37.06,9.56 37.06,28.99l0,54.64c0,1.67 -1.52,3.03 -3.37,3.03m-18.87,-37.64l-10.61,0c-15.33,0 -18.7,4.41 -18.7,12.9l0,0.61c0,7.44 3.71,9.41 12.13,9.41c6.06,0 12.3,-1.82 17.18,-4.25l0,-18.67z" fill="#032C66" id="svg_1"/>
  <path d="m152.61,574.25c-3.87,0.91 -11.45,1.98 -21.73,1.98c-21.9,0 -38.41,-12.14 -38.41,-36.88l0,-14.12c0,-24.73 16.51,-36.88 38.41,-36.88c10.28,0 17.86,1.07 21.73,1.98c2.86,0.6 3.54,1.52 3.54,3.94l0,9.87c0,1.51 -1.35,2.27 -3.03,2.27l-0.51,0c-6.74,-0.76 -10.78,-1.06 -21.73,-1.06c-7.92,0 -16.17,4.1 -16.17,19.88l0,14.12c0,15.78 8.25,19.88 16.17,19.88c10.95,0 14.99,-0.3 21.73,-1.06l0.51,0c1.68,0 3.03,0.76 3.03,2.27l0,9.87c0,2.43 -0.68,3.34 -3.54,3.94" fill="#032C66" id="svg_2"/>
  <path d="m241.71,575.01l-14.31,0c-1.86,0 -3.37,-1.36 -3.37,-3.03l0,-2.43c-7.75,4.25 -15.67,6.68 -23.75,6.68c-13.98,0 -29.14,-4.86 -29.14,-25.35l0,-0.6c0,-17.31 11.79,-26.26 41.1,-26.26l10.61,0l0,-6.68c0,-9.86 -4.89,-12.29 -14.83,-12.29c-10.78,0 -21.89,0.6 -27.45,1.21l-0.84,0c-1.69,0 -3.04,-0.45 -3.04,-2.58l0,-9.71c0,-1.67 1.02,-2.73 3.2,-3.19c6.74,-1.21 16.51,-2.43 28.13,-2.43c23.92,0 37.06,9.56 37.06,28.99l0,54.64c0,1.67 -1.51,3.03 -3.37,3.03m-18.86,-37.64l-10.61,0c-15.33,0 -18.7,4.41 -18.7,12.9l0,0.61c0,7.44 3.7,9.41 12.13,9.41c6.06,0 12.29,-1.82 17.18,-4.25l0,-18.67z" fill="#032C66" id="svg_3"/>
  <path d="m337.73,572.28c-10.45,2.43 -23.08,3.95 -33.86,3.95c-27.12,0 -40.26,-14.42 -40.26,-38.1l0,-11.68c0,-23.68 13.14,-38.1 40.26,-38.1c4.04,0 9.94,0.3 16.17,1.06l0,-26.86c0,-1.67 1.52,-3.03 3.37,-3.03l15.5,0c1.85,0 3.37,1.36 3.37,3.03l0,105.64c-0.01,2.27 -0.68,3.18 -4.55,4.09m-17.69,-66.47c-4.72,-0.61 -12.13,-1.07 -16.17,-1.07c-14.49,0 -18.02,9.26 -18.02,21.71l0,11.68c0,12.45 3.53,21.71 18.02,21.71c6.06,0 12.97,-0.46 16.17,-1.06l0,-52.97z" fill="#032C66" id="svg_4"/>
  <path d="m438.46,539.2l-54.91,0l0,0.45c0,8.8 4.04,19.27 20.21,19.27c12.29,0 23.92,-0.91 30.99,-1.51l0.51,0c1.68,0 3.03,0.75 3.03,2.27l0,10.02c0,2.43 -0.51,3.49 -3.54,3.94c-10.95,1.83 -17.51,2.58 -32.68,2.58c-16.84,0 -40.76,-8.19 -40.76,-38.09l0,-11.23c0,-23.68 14.65,-38.55 40.43,-38.55c25.94,0 40.09,15.94 40.09,38.55l0,8.5c0,2.43 -1.01,3.8 -3.37,3.8m-19.04,-14.88c0,-11.84 -7.24,-18.67 -17.68,-18.67c-10.45,0 -18.03,6.68 -18.03,18.67l0,0.61l35.71,0l0,-0.61z" fill="#032C66" id="svg_5"/>
  <path d="m578.43,575.01l-15.49,0c-1.86,0 -3.37,-1.51 -3.37,-3.18l0,-51.61c0,-11.68 -2.7,-14.72 -12.13,-14.72c-3.2,0 -9.6,0.91 -15.67,3.8c0.51,3.34 0.68,7.13 0.68,10.92l0,51.61c0,1.67 -1.52,3.18 -3.37,3.18l-15.5,0c-1.85,0 -3.37,-1.51 -3.37,-3.18l0,-51.61c0,-11.68 -2.19,-14.72 -11.62,-14.72c-3.54,0 -8.59,1.67 -15.5,5.01l0,61.32c0,1.67 -1.51,3.18 -3.36,3.18l-15.5,0c-1.85,0 -3.37,-1.51 -3.37,-3.18l0,-79.38c0,-1.67 1.52,-3.04 3.37,-3.04l14.65,0c1.86,0 3.37,1.37 3.37,3.04l0,3.19c7.08,-4.1 14.15,-7.29 24.09,-7.29c9.6,0 15.83,2.58 19.71,6.83c8.59,-4.25 16.17,-6.83 27.79,-6.83c22.91,0 27.96,14.12 27.96,31.87l0,51.6c0,1.68 -1.51,3.19 -3.37,3.19" fill="#032C66" id="svg_6"/>
  <path d="m682.7,492.9l-28.13,88.64c-5.22,16.54 -11.46,23.83 -34.36,23.83c-5.56,0 -13.98,-0.91 -17.86,-1.98c-1.85,-0.45 -3.54,-1.06 -3.54,-2.58l0,-9.71c0,-1.67 1.52,-2.73 3.37,-2.73l0.34,0c4.71,0.15 14.32,0.91 19.03,0.91c7.24,0 10.95,-1.82 13.31,-9.71l1.35,-4.56l-2.53,0c-4.88,0 -10.95,-1.06 -14.65,-12.59l-22.07,-69.52c-0.17,-0.45 -0.17,-0.76 -0.17,-1.06c0,-1.52 1.01,-2.43 3.2,-2.43l17.02,0c1.51,0 2.86,1.37 3.2,2.73l17.01,61.78c0.67,2.57 1.35,3.33 2.36,3.33l0.17,0l0.84,0l0.5,0l18.2,-65.26c0.33,-1.36 1.68,-2.58 3.37,-2.58l17.18,0c1.68,0 3.03,1.22 3.03,2.58c0,0.31 0,0.61 -0.17,0.91" fill="#032C66" id="svg_7"/>
  <path d="m275.45,665.13c-2.43,0.57 -7.2,1.24 -13.65,1.24c-13.76,0 -24.13,-7.63 -24.13,-23.17l0,-8.87c0,-15.55 10.37,-23.18 24.13,-23.18c6.46,0 11.22,0.67 13.65,1.24c1.8,0.39 2.23,0.96 2.23,2.48l0,6.2c0,0.95 -0.85,1.43 -1.91,1.43l-0.32,0c-4.23,-0.48 -6.77,-0.67 -13.65,-0.67c-4.97,0 -10.16,2.58 -10.16,12.5l0,8.87c0,9.91 5.19,12.49 10.16,12.49c6.88,0 9.42,-0.19 13.65,-0.67l0.32,0c1.06,0 1.91,0.48 1.91,1.43l0,6.2c0,1.53 -0.43,2.1 -2.23,2.48" fill="#032C66" id="svg_8"/>
  <path d="m312.82,666.37c-16.62,0 -25.3,-10.11 -25.3,-23.74l0,-7.73c0,-13.64 8.68,-23.75 25.3,-23.75c16.62,0 25.3,10.11 25.3,23.75l0,7.73c0,13.63 -8.68,23.74 -25.3,23.74m11.33,-31.47c0,-7.82 -3.92,-12.88 -11.33,-12.88c-7.41,0 -11.33,5.06 -11.33,12.88l0,7.73c0,7.81 3.92,12.87 11.33,12.87c7.41,0 11.33,-5.06 11.33,-12.87l0,-7.73z" fill="#032C66" id="svg_9"/>
  <path d="m394.54,663.89c-6.57,1.53 -14.51,2.48 -21.28,2.48c-17.04,0 -25.3,-9.06 -25.3,-23.93l0,-7.35c0,-14.88 8.26,-23.94 25.3,-23.94c2.54,0 6.25,0.19 10.16,0.67l0,-16.88c0,-1.05 0.95,-1.91 2.12,-1.91l9.74,0c1.16,0 2.11,0.86 2.11,1.91l0,66.38c0,1.43 -0.42,2 -2.85,2.57m-11.12,-41.77c-2.96,-0.38 -7.62,-0.67 -10.16,-0.67c-9.1,0 -11.32,5.82 -11.32,13.64l0,7.35c0,7.82 2.22,13.63 11.32,13.63c3.81,0 8.15,-0.28 10.16,-0.66l0,-33.29z" fill="#032C66" id="svg_10"/>
  <path d="m457.84,643.1l-34.51,0l0,0.29c0,5.53 2.54,12.11 12.7,12.11c7.73,0 15.03,-0.57 19.48,-0.95l0.31,0c1.06,0 1.91,0.47 1.91,1.43l0,6.29c0,1.53 -0.32,2.19 -2.22,2.48c-6.88,1.15 -11.01,1.62 -20.54,1.62c-10.58,0 -25.61,-5.15 -25.61,-23.94l0,-7.05c0,-14.88 9.21,-24.23 25.4,-24.23c16.3,0 25.19,10.02 25.19,24.23l0,5.34c0,1.52 -0.63,2.38 -2.11,2.38m-11.96,-9.34c0,-7.44 -4.56,-11.74 -11.12,-11.74c-6.56,0 -11.32,4.2 -11.32,11.74l0,0.38l22.44,0l0,-0.38z" fill="#032C66" id="svg_11"/>
  <polyline fill="#032C66" id="svg_15" points="444.052,273.662 330.041,387.673 193.227,250.859 307.238,136.848 261.634,91.244 147.623,205.254   102.018,159.65 193.227,68.441 261.634,0.035 489.657,228.057 "/>
  <rect fill="#04D39F" height="64.49" id="svg_16" transform="matrix(0.7071 -0.7071 0.7071 0.7071 -69.3163 311.5715)" width="96.74" x="293.07" y="207.21"/>
  <polygon fill="#04D39F" id="svg_17" points="261.634,91.243 147.623,205.254 102.018,250.859 147.623,296.463 261.634,410.476 307.239,364.87   193.227,250.859 307.239,136.849 "/>
  <polygon fill="#04D39F" id="svg_18" points="356.382,94.542 489.643,228.042 352.667,364.694 398.271,410.3 535.246,273.647 580.852,228.042   535.246,182.438 401.985,48.937 "/>
 </g>
</svg>